<svg xmlns="http://www.w3.org/2000/svg" xmlns:xlink="http://www.w3.org/1999/xlink" width="160" zoomAndPan="magnify" viewBox="0 0 120 44.999999" height="60" preserveAspectRatio="xMidYMid meet" version="1.0"><defs><g/><clipPath id="3cbe45eb1a"><path d="M 42 37 L 44 37 L 44 38.972656 L 42 38.972656 Z M 42 37 " clip-rule="nonzero"/></clipPath><clipPath id="7d80fdf6e5"><path d="M 22 17 L 61 17 L 61 45 L 22 45 Z M 22 17 " clip-rule="nonzero"/></clipPath><clipPath id="c17aff0e79"><path d="M 52.332031 52.875 L 15.007812 31.527344 L 23.105469 17.367188 L 60.429688 38.714844 Z M 52.332031 52.875 " clip-rule="nonzero"/></clipPath><clipPath id="a80d81fac6"><path d="M 52.332031 52.875 L 15.007812 31.527344 L 23.105469 17.367188 L 60.429688 38.714844 Z M 52.332031 52.875 " clip-rule="nonzero"/></clipPath><clipPath id="a71da4223c"><path d="M 26 19 L 60 19 L 60 43 L 26 43 Z M 26 19 " clip-rule="nonzero"/></clipPath><clipPath id="61195e2c7b"><path d="M 52.734375 50.511719 L 19.820312 31.6875 L 26.867188 19.371094 L 59.777344 38.195312 Z M 52.734375 50.511719 " clip-rule="nonzero"/></clipPath><clipPath id="c1f9d0f2f2"><path d="M 52.734375 50.511719 L 19.820312 31.6875 L 26.867188 19.371094 L 59.777344 38.195312 Z M 52.734375 50.511719 " clip-rule="nonzero"/></clipPath></defs><path fill="#69849b" d="M 42.40625 12.484375 L 42.40625 15.785156 C 42.652344 15.792969 42.886719 15.800781 43.121094 15.808594 C 43.21875 15.8125 43.320312 15.816406 43.417969 15.820312 L 43.480469 12.453125 L 43.46875 12.441406 C 43.191406 12.144531 43.023438 11.839844 42.96875 11.554688 C 42.914062 11.847656 42.734375 12.15625 42.4375 12.453125 L 42.40625 12.484375 " fill-opacity="1" fill-rule="nonzero"/><path fill="#69849b" d="M 42.402344 36.15625 C 42.460938 36.226562 42.523438 36.296875 42.59375 36.367188 C 42.785156 36.171875 42.953125 35.96875 43.0625 35.761719 L 43.078125 34.875 C 43.039062 34.820312 42.992188 34.769531 42.933594 34.71875 C 42.917969 34.710938 42.894531 34.695312 42.867188 34.675781 C 42.800781 34.632812 42.703125 34.566406 42.574219 34.5 C 42.511719 34.527344 42.457031 34.558594 42.402344 34.589844 L 42.402344 36.15625 " fill-opacity="1" fill-rule="nonzero"/><g clip-path="url(#3cbe45eb1a)"><path fill="#69849b" d="M 42.402344 37.660156 L 42.402344 38.9375 L 43.003906 38.9375 L 43.027344 37.816406 C 42.890625 37.742188 42.742188 37.648438 42.59375 37.542969 C 42.53125 37.582031 42.46875 37.625 42.402344 37.660156 " fill-opacity="1" fill-rule="nonzero"/></g><path fill="#69849b" d="M 42.40625 19.476562 C 42.550781 19.53125 42.703125 19.589844 42.878906 19.65625 C 42.910156 19.644531 42.9375 19.632812 42.96875 19.625 C 43.113281 19.527344 43.238281 19.441406 43.355469 19.363281 L 43.386719 17.789062 C 43.351562 17.785156 43.316406 17.78125 43.285156 17.777344 C 43.28125 17.773438 43.214844 17.761719 43.113281 17.746094 L 43.074219 17.746094 C 42.738281 17.742188 42.464844 17.789062 42.457031 17.789062 C 42.441406 17.792969 42.425781 17.792969 42.40625 17.792969 L 42.40625 19.476562 " fill-opacity="1" fill-rule="nonzero"/><path fill="#69849b" d="M 42.667969 25.589844 C 42.875 25.5625 43.066406 25.519531 43.246094 25.460938 L 43.316406 21.605469 C 43.175781 21.5625 43.027344 21.527344 42.878906 21.492188 C 42.820312 21.5 42.632812 21.542969 42.40625 21.605469 L 42.40625 25.523438 C 42.488281 25.550781 42.578125 25.570312 42.667969 25.589844 " fill-opacity="1" fill-rule="nonzero"/><path fill="#69849b" d="M 42.949219 11.078125 C 42.957031 11.113281 42.964844 11.144531 42.96875 11.179688 C 42.976562 11.136719 42.988281 11.09375 43 11.050781 C 43.085938 10.8125 43.261719 10.617188 43.515625 10.472656 L 43.585938 6.613281 C 44.074219 6.378906 44.414062 5.878906 44.414062 5.300781 C 44.410156 4.496094 43.757812 3.84375 42.957031 3.847656 C 42.152344 3.847656 41.5 4.5 41.503906 5.304688 C 41.503906 5.914062 41.878906 6.433594 42.410156 6.648438 L 42.40625 10.460938 C 42.679688 10.617188 42.871094 10.828125 42.949219 11.078125 " fill-opacity="1" fill-rule="nonzero"/><path fill="#69849b" d="M 43.21875 27.089844 C 43.1875 27.085938 43.160156 27.085938 43.132812 27.085938 L 43.128906 27.082031 C 42.910156 27.113281 42.679688 27.128906 42.425781 27.132812 L 42.402344 27.128906 L 42.402344 30.832031 C 42.507812 30.914062 42.613281 30.992188 42.722656 31.0625 C 42.867188 30.964844 43.011719 30.855469 43.152344 30.734375 L 43.21875 27.089844 " fill-opacity="1" fill-rule="nonzero"/><path fill="#69849b" d="M 42.75 32.921875 C 42.730469 32.84375 42.695312 32.765625 42.648438 32.683594 C 42.582031 32.777344 42.539062 32.863281 42.515625 32.945312 L 42.511719 32.953125 C 42.496094 33.039062 42.480469 33.183594 42.5 33.324219 C 42.507812 33.371094 42.519531 33.417969 42.539062 33.464844 C 42.554688 33.503906 42.574219 33.542969 42.597656 33.582031 L 42.609375 33.589844 C 42.792969 33.398438 42.773438 33.078125 42.75 32.921875 " fill-opacity="1" fill-rule="nonzero"/><path fill="#69849b" d="M 43.550781 34.277344 L 43.53125 34.265625 C 43.484375 34.226562 43.421875 34.1875 43.347656 34.144531 C 43.328125 34.128906 43.304688 34.117188 43.28125 34.105469 C 43.257812 34.089844 43.234375 34.074219 43.210938 34.066406 C 43.171875 34.042969 43.132812 34.023438 43.09375 34.003906 C 43.003906 33.960938 42.925781 33.925781 42.882812 33.917969 C 42.769531 33.890625 42.675781 33.84375 42.597656 33.78125 C 42.578125 33.769531 42.5625 33.75 42.546875 33.730469 C 42.527344 33.714844 42.511719 33.699219 42.496094 33.675781 C 42.457031 33.625 42.425781 33.566406 42.402344 33.503906 C 42.34375 33.34375 42.328125 33.144531 42.375 32.917969 C 42.382812 32.890625 42.390625 32.859375 42.402344 32.832031 C 42.4375 32.746094 42.488281 32.65625 42.554688 32.566406 C 42.539062 32.546875 42.523438 32.527344 42.503906 32.5 C 42.480469 32.464844 42.441406 32.421875 42.402344 32.375 L 42.367188 32.332031 C 42.347656 32.308594 42.324219 32.285156 42.300781 32.265625 C 42.285156 32.246094 42.269531 32.230469 42.25 32.214844 L 42.234375 32.195312 C 42.207031 32.175781 42.183594 32.148438 42.160156 32.128906 L 42.144531 32.113281 C 42.125 32.097656 42.105469 32.078125 42.085938 32.0625 L 42.054688 32.035156 L 41.964844 32.132812 C 41.585938 32.558594 41.4375 33.023438 41.550781 33.4375 C 41.597656 33.621094 41.695312 33.789062 41.835938 33.925781 C 41.851562 33.945312 41.871094 33.960938 41.890625 33.980469 L 41.914062 34 L 41.949219 34.027344 C 41.964844 34.042969 41.984375 34.054688 42.003906 34.070312 L 42.03125 34.085938 C 42.085938 34.121094 42.140625 34.15625 42.203125 34.1875 C 42.265625 34.21875 42.332031 34.246094 42.402344 34.273438 L 42.40625 34.273438 C 42.46875 34.292969 42.523438 34.316406 42.578125 34.339844 C 42.605469 34.355469 42.632812 34.371094 42.660156 34.382812 C 42.6875 34.398438 42.71875 34.414062 42.746094 34.429688 C 42.832031 34.476562 42.902344 34.527344 42.949219 34.558594 C 42.976562 34.578125 43 34.59375 43.011719 34.601562 L 43.023438 34.609375 L 43.039062 34.621094 L 43.042969 34.625 L 43.082031 34.660156 C 43.246094 34.816406 43.335938 34.996094 43.347656 35.203125 C 43.367188 35.480469 43.25 35.765625 43.058594 36.039062 C 42.953125 36.1875 42.828125 36.332031 42.691406 36.46875 C 42.804688 36.578125 42.921875 36.683594 43.042969 36.777344 C 43.085938 36.808594 43.128906 36.84375 43.171875 36.875 C 43.664062 36.421875 44.054688 35.894531 44.0625 35.460938 C 44.074219 34.964844 43.855469 34.554688 43.554688 34.277344 L 43.550781 34.277344 " fill-opacity="1" fill-rule="nonzero"/><path fill="#69849b" d="M 44.964844 26.398438 L 44.945312 26.390625 L 44.941406 26.386719 C 44.921875 26.375 44.90625 26.363281 44.886719 26.351562 C 44.867188 26.335938 44.84375 26.324219 44.824219 26.3125 C 44.804688 26.296875 44.785156 26.285156 44.765625 26.273438 C 44.382812 26.023438 44.023438 25.851562 43.4375 25.828125 C 43.367188 25.824219 43.304688 25.820312 43.242188 25.816406 C 43.035156 25.796875 42.839844 25.773438 42.65625 25.734375 C 42.589844 25.71875 42.519531 25.707031 42.457031 25.6875 C 42.4375 25.683594 42.421875 25.679688 42.40625 25.675781 C 42.355469 25.660156 42.308594 25.640625 42.257812 25.625 C 41.8125 25.476562 41.449219 25.246094 41.183594 24.933594 C 40.609375 24.253906 40.625 23.347656 40.683594 22.871094 C 40.804688 22.460938 40.957031 22.203125 41.183594 22.023438 C 41.246094 21.953125 41.332031 21.886719 41.441406 21.824219 C 41.714844 21.664062 42.101562 21.539062 42.40625 21.457031 C 42.457031 21.445312 42.507812 21.429688 42.550781 21.417969 L 42.597656 21.40625 L 42.582031 21.402344 C 42.527344 21.386719 42.46875 21.371094 42.40625 21.351562 C 42.148438 21.277344 41.824219 21.191406 41.535156 21.128906 C 41.347656 21.089844 40.71875 20.820312 40.554688 20.753906 L 40.546875 20.757812 C 40.515625 20.78125 40.460938 20.816406 40.398438 20.867188 C 40.363281 20.894531 40.324219 20.925781 40.28125 20.960938 C 40.242188 20.996094 40.207031 21.027344 40.167969 21.058594 C 40.148438 21.078125 40.125 21.101562 40.101562 21.121094 C 39.90625 21.3125 39.699219 21.5625 39.582031 21.851562 C 39.554688 21.910156 39.527344 21.96875 39.503906 22.027344 C 39.253906 22.652344 39.242188 23.332031 39.359375 23.871094 C 39.371094 23.914062 39.378906 23.960938 39.390625 24.003906 L 39.394531 24.019531 C 39.40625 24.054688 39.417969 24.09375 39.429688 24.128906 L 39.4375 24.15625 C 39.449219 24.1875 39.460938 24.21875 39.472656 24.253906 L 39.484375 24.277344 C 39.5 24.320312 39.515625 24.355469 39.53125 24.390625 L 39.601562 24.535156 C 39.609375 24.554688 39.617188 24.574219 39.625 24.589844 C 39.839844 25.042969 40.109375 25.597656 40.601562 26.050781 C 40.621094 26.070312 40.636719 26.082031 40.65625 26.097656 C 40.675781 26.113281 40.691406 26.128906 40.710938 26.144531 C 41.109375 26.480469 41.652344 26.753906 42.402344 26.875 C 42.625 26.910156 42.867188 26.933594 43.125 26.941406 L 43.132812 26.941406 C 43.160156 26.941406 43.1875 26.941406 43.21875 26.945312 C 43.285156 26.945312 43.359375 26.949219 43.445312 26.957031 C 43.507812 26.960938 43.574219 26.972656 43.644531 26.980469 C 43.90625 27.027344 44.195312 27.113281 44.398438 27.304688 L 44.410156 27.3125 C 44.605469 27.480469 44.707031 27.675781 44.753906 27.855469 C 44.992188 28.761719 44.15625 30.097656 43.148438 30.925781 C 43.050781 31.003906 42.949219 31.082031 42.851562 31.152344 C 42.953125 31.222656 43.050781 31.292969 43.144531 31.363281 C 43.269531 31.46875 43.386719 31.582031 43.488281 31.695312 C 43.554688 31.644531 43.617188 31.59375 43.6875 31.542969 C 44.695312 30.761719 45.84375 29.875 45.777344 28.535156 C 45.78125 28.457031 45.816406 27.167969 44.964844 26.398438 " fill-opacity="1" fill-rule="nonzero"/><path fill="#69849b" d="M 43.554688 37.300781 C 43.441406 37.234375 43.3125 37.152344 43.183594 37.058594 C 43.160156 37.042969 43.144531 37.03125 43.121094 37.015625 C 43.101562 37.003906 43.085938 36.988281 43.0625 36.972656 L 43.042969 36.957031 C 42.886719 36.839844 42.734375 36.707031 42.589844 36.566406 L 42.539062 36.519531 C 42.519531 36.503906 42.503906 36.484375 42.488281 36.464844 C 42.457031 36.4375 42.429688 36.40625 42.402344 36.375 C 42.050781 35.988281 41.800781 35.554688 41.84375 35.152344 C 41.875 34.851562 42.0625 34.609375 42.402344 34.425781 L 42.359375 34.40625 L 42.355469 34.40625 C 42.3125 34.390625 42.269531 34.375 42.226562 34.355469 C 42.195312 34.34375 42.167969 34.328125 42.140625 34.316406 L 42.117188 34.300781 C 42.0625 34.277344 42.015625 34.246094 41.964844 34.214844 C 41.945312 34.199219 41.921875 34.183594 41.898438 34.167969 L 41.863281 34.144531 L 41.820312 34.105469 L 41.816406 34.105469 C 41.433594 34.363281 41.128906 34.8125 41.121094 35.386719 C 41.113281 35.832031 41.507812 36.382812 42 36.859375 L 42.042969 36.902344 L 42.050781 36.90625 L 42.054688 36.914062 L 42.0625 36.917969 L 42.105469 36.960938 C 42.203125 37.050781 42.300781 37.132812 42.402344 37.214844 C 42.460938 37.265625 42.519531 37.308594 42.578125 37.355469 C 42.601562 37.371094 42.621094 37.386719 42.640625 37.398438 C 42.660156 37.414062 42.683594 37.429688 42.703125 37.445312 C 42.816406 37.523438 42.925781 37.59375 43.027344 37.65625 C 43.175781 37.742188 43.3125 37.808594 43.429688 37.847656 L 43.449219 37.859375 C 43.523438 37.921875 43.71875 37.8125 43.761719 37.648438 C 43.796875 37.515625 43.726562 37.394531 43.554688 37.300781 " fill-opacity="1" fill-rule="nonzero"/><path fill="#69849b" d="M 45.027344 11.800781 C 44.792969 11.71875 44.636719 11.554688 44.679688 11.425781 C 44.722656 11.300781 44.949219 11.265625 45.183594 11.34375 C 45.417969 11.425781 45.53125 11.71875 45.53125 11.71875 C 45.53125 11.71875 45.265625 11.882812 45.027344 11.800781 Z M 47.65625 16.382812 C 48.339844 15.53125 48.582031 14.335938 48.3125 13.09375 C 47.683594 11.398438 46.941406 10.890625 46.304688 10.617188 C 45.78125 10.4375 45.246094 10.34375 44.753906 10.34375 C 44.234375 10.347656 43.804688 10.453125 43.511719 10.644531 C 43.328125 10.761719 43.199219 10.914062 43.136719 11.097656 C 43.019531 11.4375 43.144531 11.839844 43.484375 12.242188 C 43.511719 12.277344 43.539062 12.308594 43.570312 12.34375 C 43.988281 12.792969 44.617188 13.175781 45.34375 13.425781 C 45.8125 13.585938 46.363281 13.613281 46.964844 13.496094 C 46.984375 13.492188 47.003906 13.496094 47.019531 13.511719 C 47.039062 13.519531 47.050781 13.542969 47.050781 13.5625 C 47.070312 13.914062 47.007812 14.328125 46.859375 14.800781 C 46.480469 15.671875 45.753906 15.925781 44.710938 15.972656 C 45.15625 16.125 45.511719 16.398438 45.765625 16.789062 C 45.898438 16.992188 46 17.21875 46.066406 17.460938 C 46.71875 17.242188 47.257812 16.878906 47.65625 16.382812 " fill-opacity="1" fill-rule="nonzero"/><path fill="#69849b" d="M 45.132812 20.832031 C 45.113281 20.816406 45.09375 20.800781 45.074219 20.785156 C 45.050781 20.769531 45.027344 20.757812 45.007812 20.742188 C 44.988281 20.730469 44.96875 20.71875 44.949219 20.707031 C 44.828125 20.640625 44.640625 20.539062 44.421875 20.425781 C 44.03125 20.25 43.667969 20.105469 43.347656 19.984375 C 43.191406 19.921875 43.042969 19.867188 42.90625 19.816406 L 42.875 19.808594 C 42.839844 19.792969 42.804688 19.78125 42.769531 19.765625 C 42.734375 19.753906 42.699219 19.738281 42.664062 19.726562 C 42.574219 19.695312 42.488281 19.660156 42.40625 19.628906 C 41.601562 19.3125 41.175781 19.039062 41.265625 18.363281 C 41.292969 18.144531 41.390625 17.96875 41.554688 17.839844 C 41.425781 17.839844 41.296875 17.835938 41.167969 17.828125 L 41.164062 17.828125 C 40.65625 17.796875 40.1875 17.707031 39.765625 17.566406 L 39.761719 17.570312 C 39.570312 18.339844 39.660156 19.234375 39.910156 19.886719 C 40.082031 20.1875 40.300781 20.414062 40.550781 20.585938 L 40.582031 20.609375 C 40.589844 20.609375 40.601562 20.617188 40.625 20.628906 C 40.644531 20.636719 40.671875 20.648438 40.707031 20.664062 C 40.941406 20.761719 41.417969 20.957031 41.566406 20.988281 C 41.84375 21.050781 42.152344 21.132812 42.40625 21.203125 C 42.644531 21.269531 42.832031 21.328125 42.882812 21.34375 L 42.902344 21.347656 C 42.953125 21.359375 43.003906 21.371094 43.054688 21.386719 C 43.113281 21.398438 43.164062 21.414062 43.222656 21.429688 C 43.253906 21.4375 43.285156 21.449219 43.316406 21.457031 C 44.054688 21.671875 44.660156 22.023438 44.890625 22.894531 C 44.9375 23.386719 44.925781 24.292969 44.328125 24.957031 C 44.054688 25.257812 43.691406 25.472656 43.246094 25.609375 C 43.191406 25.625 43.136719 25.644531 43.082031 25.65625 C 43.132812 25.664062 43.1875 25.667969 43.242188 25.667969 C 43.308594 25.675781 43.371094 25.683594 43.441406 25.6875 C 44.078125 25.710938 44.472656 25.910156 44.878906 26.175781 L 44.894531 26.160156 C 45.375 25.714844 45.648438 25.167969 45.878906 24.699219 C 45.921875 24.617188 45.960938 24.539062 45.996094 24.46875 C 46.273438 23.929688 46.417969 23.003906 46.117188 22.148438 C 45.933594 21.613281 45.597656 21.175781 45.132812 20.832031 " fill-opacity="1" fill-rule="nonzero"/><path fill="#69849b" d="M 43.421875 31.835938 C 43.40625 31.816406 43.390625 31.800781 43.375 31.78125 C 43.304688 31.703125 43.226562 31.625 43.136719 31.550781 C 43.011719 31.4375 42.875 31.335938 42.722656 31.238281 L 42.703125 31.226562 C 42.6875 31.214844 42.671875 31.203125 42.65625 31.191406 C 42.632812 31.179688 42.613281 31.164062 42.59375 31.148438 C 42.527344 31.105469 42.464844 31.058594 42.402344 31.011719 C 41.3125 30.171875 40.585938 28.75 40.84375 27.863281 C 40.953125 27.484375 41.28125 27.035156 42.214844 26.992188 L 42.238281 26.992188 C 41.507812 26.851562 40.984375 26.570312 40.585938 26.234375 L 40.582031 26.234375 C 39.628906 26.96875 39.625 28.328125 39.625 28.40625 C 39.519531 29.746094 40.636719 30.667969 41.621094 31.480469 C 41.707031 31.550781 41.789062 31.617188 41.867188 31.683594 C 41.882812 31.703125 41.902344 31.714844 41.921875 31.730469 C 41.941406 31.746094 41.960938 31.761719 41.976562 31.777344 C 42.015625 31.8125 42.058594 31.847656 42.097656 31.878906 L 42.125 31.90625 C 42.179688 31.953125 42.296875 32.054688 42.402344 32.164062 C 42.425781 32.1875 42.449219 32.210938 42.472656 32.234375 L 42.480469 32.242188 C 42.539062 32.308594 42.601562 32.375 42.648438 32.441406 C 42.664062 32.460938 42.679688 32.480469 42.695312 32.5 L 42.722656 32.539062 L 42.734375 32.558594 C 42.808594 32.671875 42.863281 32.78125 42.886719 32.894531 C 42.941406 33.242188 42.878906 33.515625 42.710938 33.691406 C 42.765625 33.726562 42.832031 33.757812 42.914062 33.777344 C 42.957031 33.785156 43.023438 33.8125 43.097656 33.847656 C 43.171875 33.882812 43.253906 33.921875 43.339844 33.972656 L 43.359375 33.957031 C 43.628906 33.730469 43.804688 33.425781 43.851562 33.078125 C 43.902344 32.675781 43.765625 32.265625 43.46875 31.890625 C 43.453125 31.875 43.4375 31.855469 43.421875 31.835938 " fill-opacity="1" fill-rule="nonzero"/><path fill="#69849b" d="M 42.46875 37.453125 L 42.453125 37.441406 C 42.4375 37.429688 42.417969 37.417969 42.402344 37.402344 C 42.261719 37.304688 42.125 37.199219 41.984375 37.046875 C 41.898438 37.105469 41.8125 37.15625 41.730469 37.207031 C 41.675781 37.234375 41.625 37.269531 41.570312 37.296875 C 41.4375 37.367188 41.363281 37.453125 41.347656 37.546875 C 41.34375 37.578125 41.347656 37.609375 41.351562 37.644531 C 41.359375 37.660156 41.367188 37.679688 41.375 37.695312 L 41.378906 37.710938 L 41.40625 37.75 L 41.410156 37.757812 C 41.464844 37.828125 41.542969 37.875 41.605469 37.875 L 41.621094 37.875 L 41.625 37.871094 L 41.660156 37.859375 L 41.679688 37.851562 C 41.746094 37.828125 41.832031 37.792969 41.921875 37.75 C 42.074219 37.679688 42.246094 37.589844 42.402344 37.496094 C 42.425781 37.480469 42.445312 37.46875 42.46875 37.453125 " fill-opacity="1" fill-rule="nonzero"/><path fill="#69849b" d="M 40.757812 11.304688 C 40.996094 11.230469 41.21875 11.273438 41.257812 11.402344 C 41.296875 11.527344 41.136719 11.691406 40.898438 11.761719 C 40.660156 11.835938 40.398438 11.667969 40.398438 11.667969 C 40.398438 11.667969 40.519531 11.375 40.757812 11.304688 Z M 45.933594 17.503906 C 45.902344 17.40625 45.871094 17.308594 45.832031 17.214844 C 45.78125 17.09375 45.71875 16.976562 45.648438 16.867188 C 45.273438 16.296875 44.675781 15.996094 43.867188 15.976562 L 43.820312 15.972656 C 43.785156 15.972656 43.75 15.972656 43.714844 15.972656 C 43.613281 15.96875 43.515625 15.96875 43.417969 15.96875 C 43.164062 15.96875 42.921875 15.96875 42.683594 15.972656 C 42.589844 15.972656 42.5 15.972656 42.40625 15.972656 C 42.050781 15.976562 41.710938 15.972656 41.398438 15.960938 C 41.3125 15.957031 41.222656 15.953125 41.140625 15.945312 C 41.078125 15.941406 41.023438 15.9375 40.964844 15.933594 C 40.746094 15.910156 40.542969 15.882812 40.359375 15.839844 L 40.335938 15.828125 L 40.335938 15.835938 C 39.699219 15.683594 39.238281 15.367188 38.976562 14.710938 C 38.839844 14.230469 38.789062 13.8125 38.824219 13.457031 C 38.824219 13.441406 38.835938 13.421875 38.855469 13.410156 C 38.871094 13.398438 38.890625 13.390625 38.910156 13.398438 C 39.507812 13.53125 40.058594 13.523438 40.53125 13.378906 C 41.265625 13.152344 41.90625 12.789062 42.335938 12.351562 C 42.363281 12.328125 42.386719 12.300781 42.40625 12.277344 C 42.773438 11.875 42.921875 11.46875 42.8125 11.121094 C 42.75 10.925781 42.609375 10.757812 42.40625 10.625 C 42.097656 10.425781 41.636719 10.3125 41.085938 10.3125 C 40.632812 10.3125 40.136719 10.394531 39.65625 10.542969 C 39.015625 10.792969 38.257812 11.28125 37.578125 12.964844 C 37.265625 14.207031 37.476562 15.429688 38.160156 16.304688 C 38.484375 16.71875 38.90625 17.042969 39.410156 17.273438 L 39.421875 17.277344 L 39.429688 17.28125 C 39.507812 17.316406 39.585938 17.347656 39.667969 17.378906 C 39.691406 17.386719 39.710938 17.394531 39.734375 17.402344 C 39.757812 17.414062 39.78125 17.417969 39.804688 17.425781 C 39.886719 17.453125 39.96875 17.480469 40.054688 17.503906 L 40.085938 17.515625 C 40.1875 17.542969 40.296875 17.566406 40.40625 17.585938 L 40.425781 17.59375 C 40.542969 17.617188 40.660156 17.632812 40.78125 17.648438 C 40.804688 17.652344 40.832031 17.652344 40.855469 17.65625 C 40.945312 17.667969 41.039062 17.675781 41.132812 17.679688 C 41.175781 17.683594 41.21875 17.6875 41.265625 17.6875 C 41.347656 17.691406 41.425781 17.695312 41.507812 17.695312 C 41.554688 17.695312 41.601562 17.695312 41.648438 17.695312 C 41.703125 17.695312 41.761719 17.691406 41.820312 17.6875 C 41.851562 17.6875 41.882812 17.6875 41.914062 17.6875 C 41.953125 17.6875 41.996094 17.683594 42.035156 17.683594 C 42.082031 17.679688 42.125 17.671875 42.167969 17.671875 C 42.246094 17.664062 42.324219 17.660156 42.40625 17.652344 L 42.4375 17.648438 L 42.457031 17.644531 L 42.492188 17.640625 C 42.59375 17.625 42.832031 17.597656 43.113281 17.601562 C 43.199219 17.605469 43.292969 17.609375 43.386719 17.621094 C 43.496094 17.632812 43.601562 17.652344 43.707031 17.679688 C 43.792969 17.703125 43.878906 17.730469 43.957031 17.769531 C 44.007812 17.792969 44.054688 17.820312 44.097656 17.847656 L 44.144531 17.878906 L 44.179688 17.914062 C 44.199219 17.929688 44.21875 17.945312 44.234375 17.960938 C 44.25 17.980469 44.265625 17.996094 44.28125 18.015625 C 44.304688 18.042969 44.324219 18.074219 44.34375 18.101562 L 44.367188 18.144531 C 44.386719 18.183594 44.40625 18.222656 44.417969 18.261719 L 44.425781 18.292969 C 44.4375 18.339844 44.449219 18.390625 44.453125 18.441406 C 44.46875 18.570312 44.4375 18.675781 44.363281 18.777344 C 44.332031 18.824219 44.289062 18.871094 44.238281 18.917969 C 44.101562 19.042969 43.902344 19.171875 43.640625 19.347656 C 43.601562 19.371094 43.5625 19.398438 43.527344 19.421875 C 43.472656 19.457031 43.414062 19.496094 43.351562 19.535156 C 43.324219 19.554688 43.292969 19.578125 43.261719 19.597656 C 43.226562 19.621094 43.191406 19.644531 43.152344 19.671875 C 43.171875 19.675781 43.191406 19.6875 43.207031 19.691406 C 43.253906 19.710938 43.296875 19.730469 43.347656 19.753906 C 43.675781 19.894531 44.117188 20.109375 44.488281 20.300781 C 44.71875 20.414062 44.917969 20.523438 45.046875 20.601562 C 45.078125 20.621094 45.109375 20.640625 45.132812 20.65625 C 45.15625 20.636719 45.179688 20.617188 45.207031 20.597656 C 45.265625 20.558594 45.332031 20.511719 45.402344 20.445312 C 45.515625 20.34375 45.644531 20.207031 45.765625 20 C 46.039062 19.34375 46.15625 18.429688 45.96875 17.640625 C 45.960938 17.617188 45.957031 17.597656 45.953125 17.574219 C 45.945312 17.550781 45.9375 17.527344 45.933594 17.503906 " fill-opacity="1" fill-rule="nonzero"/><path fill="#69849b" d="M 38.140625 4.925781 C 35.117188 2.964844 32.53125 0.0117188 27.339844 2.90625 C 19.914062 7.039062 16.53125 8.09375 15.164062 8.15625 C 13.792969 8.21875 13.34375 9.371094 15.433594 11.328125 C 15.652344 11.53125 16.003906 11.777344 16.4375 12.046875 L 27.90625 5.363281 C 28.089844 5.257812 28.324219 5.320312 28.429688 5.503906 C 28.535156 5.683594 28.476562 5.917969 28.292969 6.027344 L 17.199219 12.488281 C 17.605469 12.710938 18.046875 12.941406 18.527344 13.175781 L 30.050781 6.464844 C 30.234375 6.355469 30.46875 6.417969 30.578125 6.601562 C 30.683594 6.785156 30.621094 7.019531 30.4375 7.125 L 19.363281 13.578125 C 19.828125 13.792969 20.308594 14 20.792969 14.207031 L 32.199219 7.5625 C 32.382812 7.457031 32.617188 7.519531 32.722656 7.703125 C 32.832031 7.882812 32.769531 8.121094 32.585938 8.226562 L 21.6875 14.578125 C 22.199219 14.78125 22.710938 14.972656 23.207031 15.152344 L 34.347656 8.664062 C 34.527344 8.558594 34.761719 8.617188 34.871094 8.800781 C 34.976562 8.984375 34.914062 9.21875 34.730469 9.324219 L 24.167969 15.480469 C 24.777344 15.679688 25.347656 15.839844 25.859375 15.960938 L 36.492188 9.765625 C 36.675781 9.65625 36.910156 9.71875 37.019531 9.902344 C 37.125 10.085938 37.0625 10.320312 36.878906 10.425781 L 27.039062 16.160156 C 27.164062 16.171875 27.292969 16.183594 27.398438 16.179688 C 30.101562 16.144531 32.949219 15.050781 35.546875 13.355469 C 37.757812 11.90625 38.375 9.378906 42.792969 9.886719 L 42.886719 7.058594 C 42.050781 7.191406 40.597656 6.515625 38.140625 4.925781 " fill-opacity="1" fill-rule="nonzero"/><path fill="#69849b" d="M 47.773438 4.925781 C 50.800781 2.964844 53.382812 0.0117188 58.574219 2.90625 C 66 7.039062 69.382812 8.09375 70.75 8.15625 C 72.121094 8.21875 72.574219 9.371094 70.480469 11.328125 C 70.261719 11.53125 69.910156 11.777344 69.480469 12.046875 L 58.007812 5.363281 C 57.824219 5.257812 57.59375 5.320312 57.484375 5.503906 C 57.378906 5.683594 57.441406 5.917969 57.625 6.027344 L 68.714844 12.488281 C 68.308594 12.710938 67.867188 12.941406 67.386719 13.175781 L 55.863281 6.464844 C 55.679688 6.355469 55.445312 6.417969 55.335938 6.601562 C 55.230469 6.785156 55.292969 7.019531 55.476562 7.125 L 66.550781 13.578125 C 66.089844 13.792969 65.609375 14 65.121094 14.207031 L 53.714844 7.5625 C 53.53125 7.457031 53.296875 7.519531 53.191406 7.703125 C 53.085938 7.882812 53.144531 8.121094 53.328125 8.226562 L 64.230469 14.578125 C 63.714844 14.78125 63.207031 14.972656 62.707031 15.152344 L 51.566406 8.664062 C 51.382812 8.558594 51.152344 8.617188 51.042969 8.800781 C 50.9375 8.984375 51 9.21875 51.183594 9.324219 L 61.746094 15.480469 C 61.136719 15.679688 60.570312 15.839844 60.054688 15.960938 L 49.421875 9.765625 C 49.238281 9.65625 49.003906 9.71875 48.894531 9.902344 C 48.789062 10.085938 48.851562 10.320312 49.035156 10.425781 L 58.875 16.160156 C 58.75 16.171875 58.621094 16.183594 58.515625 16.179688 C 55.8125 16.144531 52.964844 15.050781 50.367188 13.355469 C 48.15625 11.90625 47.539062 9.378906 43.121094 9.886719 L 43.027344 7.058594 C 43.863281 7.191406 45.316406 6.515625 47.773438 4.925781 " fill-opacity="1" fill-rule="nonzero"/><g clip-path="url(#7d80fdf6e5)"><g clip-path="url(#c17aff0e79)"><g clip-path="url(#a80d81fac6)"><path fill="#22766f" d="M 23.792969 18.25 C 23.664062 19.082031 23.585938 19.917969 23.550781 20.757812 C 23.519531 21.59375 23.53125 22.433594 23.59375 23.273438 C 23.652344 24.109375 23.761719 24.941406 23.914062 25.765625 C 24.070312 26.59375 24.269531 27.40625 24.515625 28.210938 C 24.761719 29.015625 25.050781 29.800781 25.386719 30.570312 C 25.722656 31.34375 26.097656 32.089844 26.515625 32.820312 C 26.933594 33.546875 27.390625 34.25 27.890625 34.925781 C 28.386719 35.605469 28.921875 36.25 29.492188 36.867188 C 30.0625 37.484375 30.664062 38.066406 31.300781 38.617188 C 31.9375 39.167969 32.601562 39.679688 33.292969 40.152344 C 33.988281 40.628906 34.703125 41.0625 35.445312 41.457031 C 36.1875 41.847656 36.949219 42.199219 37.730469 42.507812 C 38.511719 42.816406 39.308594 43.078125 40.121094 43.296875 C 40.929688 43.515625 41.753906 43.691406 42.582031 43.816406 C 43.414062 43.941406 44.246094 44.023438 45.085938 44.054688 C 45.925781 44.089844 46.765625 44.074219 47.601562 44.011719 C 49.875 43.851562 52.074219 43.363281 54.199219 42.542969 C 56.324219 41.722656 58.28125 40.609375 60.070312 39.203125 C 59.40625 39.746094 58.710938 40.246094 57.988281 40.710938 C 57.269531 41.171875 56.523438 41.59375 55.753906 41.972656 C 54.984375 42.351562 54.195312 42.6875 53.390625 42.976562 C 52.582031 43.269531 51.761719 43.511719 50.925781 43.710938 C 50.09375 43.910156 49.25 44.0625 48.398438 44.167969 C 47.546875 44.269531 46.695312 44.328125 45.835938 44.335938 C 44.980469 44.34375 44.125 44.304688 43.269531 44.21875 C 42.417969 44.128906 41.570312 43.996094 40.734375 43.8125 C 39.894531 43.628906 39.070312 43.402344 38.257812 43.125 C 37.445312 42.851562 36.652344 42.53125 35.875 42.167969 C 35.097656 41.804688 34.34375 41.398438 33.613281 40.949219 C 32.882812 40.5 32.179688 40.011719 31.503906 39.484375 C 30.828125 38.957031 30.183594 38.390625 29.570312 37.792969 C 28.957031 37.191406 28.378906 36.558594 27.839844 35.894531 C 27.296875 35.230469 26.792969 34.539062 26.328125 33.816406 C 25.863281 33.09375 25.441406 32.351562 25.0625 31.582031 C 24.03125 29.5 23.332031 27.308594 22.957031 25.015625 C 22.582031 22.722656 22.550781 20.425781 22.867188 18.121094 C 22.882812 17.992188 22.945312 17.886719 23.050781 17.808594 C 23.15625 17.726562 23.273438 17.695312 23.40625 17.714844 C 23.535156 17.730469 23.640625 17.792969 23.71875 17.898438 C 23.800781 18.003906 23.832031 18.121094 23.8125 18.253906 Z M 23.792969 18.25 " fill-opacity="1" fill-rule="nonzero"/></g></g></g><g clip-path="url(#a71da4223c)"><g clip-path="url(#61195e2c7b)"><g clip-path="url(#c1f9d0f2f2)"><path fill="#22766f" d="M 27.613281 20.039062 C 27.5 20.769531 27.429688 21.503906 27.402344 22.242188 C 27.371094 22.980469 27.382812 23.71875 27.4375 24.457031 C 27.492188 25.195312 27.585938 25.925781 27.722656 26.652344 C 27.859375 27.378906 28.035156 28.097656 28.25 28.804688 C 28.46875 29.511719 28.722656 30.203125 29.015625 30.882812 C 29.3125 31.5625 29.644531 32.21875 30.011719 32.863281 C 30.378906 33.503906 30.78125 34.121094 31.21875 34.71875 C 31.660156 35.3125 32.128906 35.882812 32.628906 36.425781 C 33.132812 36.96875 33.664062 37.480469 34.222656 37.964844 C 34.78125 38.449219 35.367188 38.898438 35.976562 39.316406 C 36.585938 39.734375 37.21875 40.117188 37.871094 40.460938 C 38.523438 40.808594 39.195312 41.117188 39.882812 41.390625 C 40.570312 41.660156 41.273438 41.894531 41.984375 42.085938 C 42.699219 42.277344 43.421875 42.429688 44.152344 42.542969 C 44.882812 42.652344 45.621094 42.722656 46.359375 42.75 C 47.097656 42.78125 47.835938 42.769531 48.574219 42.714844 C 50.574219 42.574219 52.507812 42.140625 54.378906 41.421875 C 56.25 40.699219 57.972656 39.71875 59.546875 38.480469 C 58.960938 38.957031 58.351562 39.398438 57.714844 39.804688 C 57.082031 40.214844 56.425781 40.585938 55.746094 40.917969 C 55.070312 41.253906 54.375 41.546875 53.667969 41.804688 C 52.957031 42.058594 52.234375 42.273438 51.5 42.449219 C 50.765625 42.625 50.023438 42.757812 49.273438 42.851562 C 48.523438 42.941406 47.773438 42.992188 47.019531 43 C 46.261719 43.007812 45.511719 42.972656 44.757812 42.894531 C 44.007812 42.816406 43.265625 42.699219 42.527344 42.539062 C 41.789062 42.375 41.0625 42.175781 40.347656 41.933594 C 39.632812 41.691406 38.933594 41.410156 38.25 41.089844 C 37.566406 40.769531 36.902344 40.410156 36.257812 40.015625 C 35.617188 39.621094 34.996094 39.191406 34.402344 38.726562 C 33.804688 38.261719 33.238281 37.765625 32.699219 37.238281 C 32.160156 36.710938 31.652344 36.152344 31.175781 35.570312 C 30.699219 34.984375 30.253906 34.375 29.847656 33.738281 C 29.4375 33.105469 29.066406 32.449219 28.730469 31.773438 C 27.824219 29.9375 27.207031 28.011719 26.878906 25.992188 C 26.546875 23.972656 26.523438 21.953125 26.796875 19.925781 C 26.8125 19.808594 26.867188 19.71875 26.960938 19.648438 C 27.054688 19.578125 27.15625 19.550781 27.273438 19.566406 C 27.386719 19.582031 27.480469 19.636719 27.550781 19.726562 C 27.621094 19.820312 27.648438 19.925781 27.632812 20.039062 Z M 27.613281 20.039062 " fill-opacity="1" fill-rule="nonzero"/></g></g></g><g fill="#69849b" fill-opacity="1"><g transform="translate(48.629629, 34.630818)"><g><path d="M 2.0625 -3.101562 C 1.652344 -3.101562 1.253906 -2.945312 0.96875 -2.65625 L 0.972656 -4.566406 C 0.972656 -4.648438 0.929688 -4.691406 0.847656 -4.691406 L 0.539062 -4.691406 C 0.460938 -4.691406 0.417969 -4.648438 0.417969 -4.566406 L 0.410156 -0.125 C 0.410156 -0.0429688 0.457031 0 0.535156 0 L 0.707031 0 C 0.78125 0 0.832031 -0.0351562 0.84375 -0.113281 L 0.90625 -0.453125 C 1.191406 -0.117188 1.617188 0.0625 2.0625 0.0625 C 2.933594 0.0625 3.632812 -0.648438 3.632812 -1.519531 C 3.632812 -2.390625 2.933594 -3.101562 2.0625 -3.101562 Z M 2.019531 -0.460938 C 1.4375 -0.460938 0.960938 -0.9375 0.960938 -1.519531 C 0.960938 -2.097656 1.4375 -2.574219 2.019531 -2.574219 C 2.597656 -2.574219 3.074219 -2.097656 3.074219 -1.519531 C 3.074219 -0.9375 2.597656 -0.460938 2.019531 -0.460938 Z M 2.019531 -0.460938 "/></g></g></g><g fill="#69849b" fill-opacity="1"><g transform="translate(52.529572, 34.630818)"><g><path d="M 2.6875 -3.039062 C 2.625 -3.039062 2.574219 -3.019531 2.542969 -2.945312 L 1.683594 -0.910156 L 0.753906 -2.945312 C 0.726562 -3.003906 0.667969 -3.039062 0.605469 -3.039062 L 0.246094 -3.039062 C 0.148438 -3.039062 0.117188 -2.976562 0.152344 -2.886719 L 1.394531 -0.261719 L 0.679688 1.308594 C 0.640625 1.394531 0.679688 1.453125 0.773438 1.453125 L 1.105469 1.453125 C 1.167969 1.453125 1.226562 1.421875 1.253906 1.359375 L 3.144531 -2.894531 C 3.179688 -2.980469 3.144531 -3.039062 3.046875 -3.039062 Z M 2.6875 -3.039062 "/></g></g></g><g fill="#69849b" fill-opacity="1"><g transform="translate(55.830933, 34.630818)"><g/></g></g><g fill="#69849b" fill-opacity="1"><g transform="translate(57.623624, 34.630818)"><g><path d="M 1.625 0 C 3.128906 0 4.066406 -0.886719 4.066406 -2.355469 C 4.066406 -3.832031 3.125 -4.691406 1.625 -4.691406 L 0.589844 -4.691406 C 0.507812 -4.691406 0.464844 -4.648438 0.464844 -4.566406 L 0.464844 -0.125 C 0.464844 -0.0429688 0.507812 0 0.589844 0 Z M 1.066406 -4.132812 L 1.617188 -4.132812 C 2.761719 -4.132812 3.46875 -3.507812 3.46875 -2.359375 C 3.46875 -1.207031 2.761719 -0.558594 1.617188 -0.558594 L 1.066406 -0.558594 Z M 1.066406 -4.132812 "/></g></g></g><g fill="#69849b" fill-opacity="1"><g transform="translate(61.966395, 34.630818)"><g><path d="M 0.839844 0 C 0.921875 0 0.964844 -0.0429688 0.964844 -0.125 L 0.964844 -1.625 C 0.964844 -2.25 1.234375 -2.574219 1.65625 -2.574219 C 1.707031 -2.574219 1.769531 -2.570312 1.839844 -2.554688 C 1.914062 -2.539062 1.96875 -2.558594 1.988281 -2.640625 L 2.0625 -2.917969 C 2.082031 -2.992188 2.050781 -3.046875 1.980469 -3.066406 C 1.882812 -3.089844 1.796875 -3.101562 1.714844 -3.101562 C 1.394531 -3.101562 1.09375 -2.949219 0.90625 -2.585938 L 0.84375 -2.925781 C 0.828125 -3.003906 0.777344 -3.039062 0.707031 -3.039062 L 0.535156 -3.039062 C 0.453125 -3.039062 0.410156 -2.992188 0.410156 -2.914062 L 0.410156 -0.125 C 0.410156 -0.0429688 0.457031 0 0.535156 0 Z M 0.839844 0 "/></g></g></g><g fill="#69849b" fill-opacity="1"><g transform="translate(64.165267, 34.630818)"><g><path d="M 1.058594 0.0625 C 1.292969 0.0625 1.492188 -0.121094 1.492188 -0.359375 C 1.492188 -0.59375 1.296875 -0.789062 1.058594 -0.789062 C 0.824219 -0.789062 0.636719 -0.59375 0.636719 -0.359375 C 0.636719 -0.121094 0.824219 0.0625 1.058594 0.0625 Z M 1.058594 0.0625 "/></g></g></g><g fill="#69849b" fill-opacity="1"><g transform="translate(66.287788, 34.630818)"><g><path d="M 1.625 0 C 3.128906 0 4.066406 -0.886719 4.066406 -2.355469 C 4.066406 -3.832031 3.125 -4.691406 1.625 -4.691406 L 0.589844 -4.691406 C 0.507812 -4.691406 0.464844 -4.648438 0.464844 -4.566406 L 0.464844 -0.125 C 0.464844 -0.0429688 0.507812 0 0.589844 0 Z M 1.066406 -4.132812 L 1.617188 -4.132812 C 2.761719 -4.132812 3.46875 -3.507812 3.46875 -2.359375 C 3.46875 -1.207031 2.761719 -0.558594 1.617188 -0.558594 L 1.066406 -0.558594 Z M 1.066406 -4.132812 "/></g></g></g><g fill="#69849b" fill-opacity="1"><g transform="translate(70.63056, 34.630818)"><g><path d="M 1.785156 -3.101562 C 0.945312 -3.101562 0.273438 -2.464844 0.273438 -1.519531 C 0.273438 -0.566406 0.960938 0.0625 1.800781 0.0625 C 2.316406 0.0625 2.796875 -0.195312 3.085938 -0.636719 C 3.132812 -0.707031 3.117188 -0.761719 3.050781 -0.796875 L 2.835938 -0.960938 C 2.769531 -0.996094 2.726562 -0.984375 2.679688 -0.917969 C 2.464844 -0.621094 2.136719 -0.457031 1.8125 -0.457031 C 1.292969 -0.457031 0.859375 -0.839844 0.832031 -1.449219 L 3.160156 -1.449219 C 3.226562 -1.449219 3.285156 -1.464844 3.285156 -1.566406 C 3.285156 -2.464844 2.628906 -3.101562 1.785156 -3.101562 Z M 1.792969 -2.59375 C 2.191406 -2.59375 2.558594 -2.347656 2.675781 -1.902344 L 0.882812 -1.902344 C 1.007812 -2.347656 1.398438 -2.59375 1.792969 -2.59375 Z M 1.792969 -2.59375 "/></g></g></g><g fill="#69849b" fill-opacity="1"><g transform="translate(74.173186, 34.630818)"><g><path d="M 1.785156 -3.101562 C 0.945312 -3.101562 0.273438 -2.464844 0.273438 -1.519531 C 0.273438 -0.566406 0.960938 0.0625 1.800781 0.0625 C 2.316406 0.0625 2.796875 -0.195312 3.085938 -0.636719 C 3.132812 -0.707031 3.117188 -0.761719 3.050781 -0.796875 L 2.835938 -0.960938 C 2.769531 -0.996094 2.726562 -0.984375 2.679688 -0.917969 C 2.464844 -0.621094 2.136719 -0.457031 1.8125 -0.457031 C 1.292969 -0.457031 0.859375 -0.839844 0.832031 -1.449219 L 3.160156 -1.449219 C 3.226562 -1.449219 3.285156 -1.464844 3.285156 -1.566406 C 3.285156 -2.464844 2.628906 -3.101562 1.785156 -3.101562 Z M 1.792969 -2.59375 C 2.191406 -2.59375 2.558594 -2.347656 2.675781 -1.902344 L 0.882812 -1.902344 C 1.007812 -2.347656 1.398438 -2.59375 1.792969 -2.59375 Z M 1.792969 -2.59375 "/></g></g></g><g fill="#69849b" fill-opacity="1"><g transform="translate(77.715812, 34.630818)"><g><path d="M 2.0625 -3.101562 C 1.617188 -3.101562 1.191406 -2.921875 0.90625 -2.585938 L 0.84375 -2.925781 C 0.832031 -3.003906 0.78125 -3.039062 0.707031 -3.039062 L 0.535156 -3.039062 C 0.457031 -3.039062 0.410156 -2.992188 0.410156 -2.914062 L 0.417969 1.328125 C 0.417969 1.410156 0.460938 1.453125 0.539062 1.453125 L 0.847656 1.453125 C 0.929688 1.453125 0.972656 1.410156 0.972656 1.328125 L 0.96875 -0.382812 C 1.253906 -0.09375 1.652344 0.0625 2.0625 0.0625 C 2.933594 0.0625 3.632812 -0.648438 3.632812 -1.519531 C 3.632812 -2.390625 2.933594 -3.101562 2.0625 -3.101562 Z M 2.019531 -0.460938 C 1.4375 -0.460938 0.960938 -0.9375 0.960938 -1.519531 C 0.960938 -2.097656 1.4375 -2.574219 2.019531 -2.574219 C 2.597656 -2.574219 3.074219 -2.097656 3.074219 -1.519531 C 3.074219 -0.9375 2.597656 -0.460938 2.019531 -0.460938 Z M 2.019531 -0.460938 "/></g></g></g><g fill="#69849b" fill-opacity="1"><g transform="translate(81.615755, 34.630818)"><g><path d="M 0.6875 -3.433594 C 0.90625 -3.433594 1.070312 -3.597656 1.070312 -3.820312 C 1.070312 -4.042969 0.90625 -4.210938 0.6875 -4.210938 C 0.460938 -4.210938 0.296875 -4.042969 0.296875 -3.820312 C 0.296875 -3.597656 0.460938 -3.433594 0.6875 -3.433594 Z M 0.839844 0 C 0.921875 0 0.964844 -0.0429688 0.964844 -0.125 L 0.964844 -2.914062 C 0.964844 -2.992188 0.921875 -3.039062 0.839844 -3.039062 L 0.535156 -3.039062 C 0.457031 -3.039062 0.410156 -2.992188 0.410156 -2.914062 L 0.410156 -0.125 C 0.410156 -0.0429688 0.457031 0 0.535156 0 Z M 0.839844 0 "/></g></g></g><g fill="#69849b" fill-opacity="1"><g transform="translate(82.993104, 34.630818)"><g><path d="M 0.839844 0 C 0.921875 0 0.964844 -0.0429688 0.964844 -0.125 L 0.964844 -1.597656 L 2.238281 -0.0703125 C 2.28125 -0.0195312 2.332031 0 2.394531 0 L 2.804688 0 C 2.90625 0 2.941406 -0.0742188 2.875 -0.15625 L 1.574219 -1.710938 L 2.730469 -2.878906 C 2.808594 -2.960938 2.777344 -3.039062 2.667969 -3.039062 L 2.234375 -3.039062 C 2.171875 -3.039062 2.125 -3.019531 2.082031 -2.972656 L 0.964844 -1.800781 L 0.964844 -4.566406 C 0.964844 -4.648438 0.921875 -4.691406 0.839844 -4.691406 L 0.535156 -4.691406 C 0.457031 -4.691406 0.410156 -4.648438 0.410156 -4.566406 L 0.410156 -0.125 C 0.410156 -0.0429688 0.457031 0 0.535156 0 Z M 0.839844 0 "/></g></g></g><g fill="#69849b" fill-opacity="1"><g transform="translate(86.065416, 34.630818)"><g><path d="M 1.554688 -3.101562 C 1.230469 -3.101562 0.878906 -3.039062 0.539062 -2.921875 C 0.457031 -2.894531 0.433594 -2.84375 0.457031 -2.761719 L 0.527344 -2.53125 C 0.554688 -2.457031 0.609375 -2.429688 0.6875 -2.457031 C 0.964844 -2.550781 1.25 -2.613281 1.503906 -2.613281 C 1.898438 -2.613281 2.207031 -2.457031 2.207031 -2 L 2.207031 -1.757812 C 1.964844 -1.808594 1.730469 -1.835938 1.507812 -1.835938 C 0.796875 -1.835938 0.265625 -1.511719 0.265625 -0.835938 C 0.265625 -0.203125 0.730469 0.0625 1.269531 0.0625 C 1.613281 0.0625 2.015625 -0.0507812 2.273438 -0.402344 L 2.328125 -0.113281 C 2.34375 -0.0351562 2.390625 0 2.464844 0 L 2.636719 0 C 2.71875 0 2.761719 -0.0429688 2.761719 -0.125 L 2.761719 -2.039062 C 2.761719 -2.804688 2.234375 -3.101562 1.554688 -3.101562 Z M 1.359375 -0.375 C 1.0625 -0.375 0.820312 -0.527344 0.820312 -0.855469 C 0.820312 -1.238281 1.15625 -1.394531 1.621094 -1.394531 C 1.800781 -1.394531 2 -1.367188 2.207031 -1.324219 L 2.207031 -1.21875 C 2.207031 -0.59375 1.710938 -0.375 1.359375 -0.375 Z M 1.359375 -0.375 "/></g></g></g><g fill="#69849b" fill-opacity="1"><g transform="translate(89.217132, 34.630818)"><g/></g></g><g fill="#69849b" fill-opacity="1"><g transform="translate(91.009823, 34.630818)"><g><path d="M 2.707031 0.0976562 C 3.394531 0.0976562 4.007812 -0.164062 4.4375 -0.609375 C 4.480469 -0.652344 4.5 -0.695312 4.5 -0.757812 L 4.5 -1.921875 C 4.5 -2.003906 4.457031 -2.046875 4.375 -2.046875 L 2.785156 -2.046875 C 2.703125 -2.046875 2.660156 -2.003906 2.660156 -1.921875 L 2.660156 -1.625 C 2.660156 -1.542969 2.703125 -1.5 2.785156 -1.5 L 3.933594 -1.5 L 3.933594 -0.933594 C 3.609375 -0.648438 3.175781 -0.46875 2.707031 -0.46875 C 1.6875 -0.46875 0.863281 -1.238281 0.863281 -2.347656 C 0.863281 -3.453125 1.6875 -4.210938 2.707031 -4.210938 C 3.1875 -4.210938 3.621094 -4.027344 3.945312 -3.730469 C 4.007812 -3.679688 4.0625 -3.679688 4.125 -3.730469 L 4.398438 -3.945312 C 4.460938 -4 4.464844 -4.058594 4.40625 -4.117188 C 3.96875 -4.535156 3.375 -4.789062 2.707031 -4.789062 C 1.347656 -4.789062 0.265625 -3.78125 0.265625 -2.347656 C 0.265625 -0.90625 1.347656 0.0976562 2.707031 0.0976562 Z M 2.707031 0.0976562 "/></g></g></g><g fill="#69849b" fill-opacity="1"><g transform="translate(95.810692, 34.630818)"><g><path d="M 1.605469 0.0625 C 2.304688 0.0625 2.847656 -0.359375 2.847656 -1.15625 L 2.847656 -2.914062 C 2.847656 -2.992188 2.804688 -3.039062 2.722656 -3.039062 L 2.417969 -3.039062 C 2.335938 -3.039062 2.292969 -2.992188 2.292969 -2.914062 L 2.292969 -1.167969 C 2.292969 -0.691406 2 -0.46875 1.605469 -0.46875 C 1.222656 -0.46875 0.921875 -0.683594 0.921875 -1.167969 L 0.921875 -2.914062 C 0.921875 -2.992188 0.878906 -3.039062 0.796875 -3.039062 L 0.496094 -3.039062 C 0.414062 -3.039062 0.371094 -2.992188 0.371094 -2.914062 L 0.371094 -1.15625 C 0.371094 -0.359375 0.90625 0.0625 1.605469 0.0625 Z M 1.605469 0.0625 "/></g></g></g><g fill="#69849b" fill-opacity="1"><g transform="translate(99.026542, 34.630818)"><g><path d="M 2.0625 -3.101562 C 1.617188 -3.101562 1.191406 -2.921875 0.90625 -2.585938 L 0.84375 -2.925781 C 0.832031 -3.003906 0.78125 -3.039062 0.707031 -3.039062 L 0.535156 -3.039062 C 0.457031 -3.039062 0.410156 -2.992188 0.410156 -2.914062 L 0.417969 1.328125 C 0.417969 1.410156 0.460938 1.453125 0.539062 1.453125 L 0.847656 1.453125 C 0.929688 1.453125 0.972656 1.410156 0.972656 1.328125 L 0.96875 -0.382812 C 1.253906 -0.09375 1.652344 0.0625 2.0625 0.0625 C 2.933594 0.0625 3.632812 -0.648438 3.632812 -1.519531 C 3.632812 -2.390625 2.933594 -3.101562 2.0625 -3.101562 Z M 2.019531 -0.460938 C 1.4375 -0.460938 0.960938 -0.9375 0.960938 -1.519531 C 0.960938 -2.097656 1.4375 -2.574219 2.019531 -2.574219 C 2.597656 -2.574219 3.074219 -2.097656 3.074219 -1.519531 C 3.074219 -0.9375 2.597656 -0.460938 2.019531 -0.460938 Z M 2.019531 -0.460938 "/></g></g></g><g fill="#69849b" fill-opacity="1"><g transform="translate(102.926485, 34.630818)"><g><path d="M 1.417969 0.0625 C 1.550781 0.0625 1.691406 0.0507812 1.851562 -0.0078125 C 1.925781 -0.0351562 1.949219 -0.101562 1.917969 -0.175781 L 1.847656 -0.398438 C 1.816406 -0.472656 1.765625 -0.5 1.6875 -0.46875 C 1.605469 -0.441406 1.53125 -0.429688 1.472656 -0.429688 C 1.265625 -0.429688 1.140625 -0.566406 1.140625 -0.871094 L 1.140625 -2.554688 L 1.765625 -2.554688 C 1.847656 -2.554688 1.890625 -2.597656 1.890625 -2.679688 L 1.890625 -2.914062 C 1.890625 -2.992188 1.847656 -3.039062 1.765625 -3.039062 L 1.140625 -3.039062 L 1.140625 -3.960938 C 1.140625 -4.042969 1.097656 -4.085938 1.015625 -4.085938 L 0.707031 -4.085938 C 0.628906 -4.085938 0.582031 -4.042969 0.582031 -3.960938 L 0.582031 -3.039062 L 0.324219 -3.039062 C 0.246094 -3.039062 0.199219 -2.992188 0.199219 -2.914062 L 0.199219 -2.679688 C 0.199219 -2.597656 0.246094 -2.554688 0.324219 -2.554688 L 0.582031 -2.554688 L 0.582031 -0.757812 C 0.582031 -0.230469 0.9375 0.0625 1.417969 0.0625 Z M 1.417969 0.0625 "/></g></g></g><g fill="#69849b" fill-opacity="1"><g transform="translate(105.064276, 34.630818)"><g><path d="M 1.554688 -3.101562 C 1.230469 -3.101562 0.878906 -3.039062 0.539062 -2.921875 C 0.457031 -2.894531 0.433594 -2.84375 0.457031 -2.761719 L 0.527344 -2.53125 C 0.554688 -2.457031 0.609375 -2.429688 0.6875 -2.457031 C 0.964844 -2.550781 1.25 -2.613281 1.503906 -2.613281 C 1.898438 -2.613281 2.207031 -2.457031 2.207031 -2 L 2.207031 -1.757812 C 1.964844 -1.808594 1.730469 -1.835938 1.507812 -1.835938 C 0.796875 -1.835938 0.265625 -1.511719 0.265625 -0.835938 C 0.265625 -0.203125 0.730469 0.0625 1.269531 0.0625 C 1.613281 0.0625 2.015625 -0.0507812 2.273438 -0.402344 L 2.328125 -0.113281 C 2.34375 -0.0351562 2.390625 0 2.464844 0 L 2.636719 0 C 2.71875 0 2.761719 -0.0429688 2.761719 -0.125 L 2.761719 -2.039062 C 2.761719 -2.804688 2.234375 -3.101562 1.554688 -3.101562 Z M 1.359375 -0.375 C 1.0625 -0.375 0.820312 -0.527344 0.820312 -0.855469 C 0.820312 -1.238281 1.15625 -1.394531 1.621094 -1.394531 C 1.800781 -1.394531 2 -1.367188 2.207031 -1.324219 L 2.207031 -1.21875 C 2.207031 -0.59375 1.710938 -0.375 1.359375 -0.375 Z M 1.359375 -0.375 "/></g></g></g><g fill="#22766f" fill-opacity="1"><g transform="translate(48.629629, 27.370789)"><g><path d="M 3.4375 -5.101562 L 2.035156 -5.101562 L 2.035156 -8.585938 C 2.035156 -8.695312 1.972656 -8.757812 1.863281 -8.757812 L 0.734375 -8.757812 C 0.601562 -8.757812 0.546875 -8.695312 0.546875 -8.585938 L 0.546875 -0.175781 C 0.546875 -0.0664062 0.601562 0 0.734375 0 L 1.863281 0 C 1.972656 0 2.035156 -0.0664062 2.035156 -0.175781 L 2.035156 -3.65625 L 3.4375 -3.65625 L 3.4375 -0.175781 C 3.4375 -0.0664062 3.503906 0 3.613281 0 L 4.742188 0 C 4.871094 0 4.925781 -0.0664062 4.925781 -0.175781 L 4.925781 -8.585938 C 4.925781 -8.695312 4.871094 -8.757812 4.742188 -8.757812 L 3.613281 -8.757812 C 3.503906 -8.757812 3.4375 -8.695312 3.4375 -8.585938 Z M 3.4375 -5.101562 "/></g></g></g><g fill="#22766f" fill-opacity="1"><g transform="translate(54.103675, 27.370789)"><g><path d="M 0.546875 -1.578125 C 0.546875 -0.546875 1.09375 0 2.125 0 L 3.351562 0 C 4.378906 0 4.925781 -0.546875 4.925781 -1.578125 L 4.925781 -7.183594 C 4.925781 -8.210938 4.378906 -8.757812 3.351562 -8.757812 L 2.125 -8.757812 C 1.09375 -8.757812 0.546875 -8.210938 0.546875 -7.183594 Z M 2.441406 -1.414062 C 2.15625 -1.414062 2.003906 -1.554688 2.003906 -1.851562 L 2.003906 -6.910156 C 2.003906 -7.195312 2.15625 -7.347656 2.441406 -7.347656 L 3.078125 -7.347656 C 3.363281 -7.347656 3.515625 -7.195312 3.515625 -6.910156 L 3.515625 -1.851562 C 3.515625 -1.554688 3.363281 -1.414062 3.078125 -1.414062 Z M 2.441406 -1.414062 "/></g></g></g><g fill="#22766f" fill-opacity="1"><g transform="translate(59.577721, 27.370789)"><g><path d="M 5.125 -8.757812 C 4.992188 -8.757812 4.917969 -8.695312 4.882812 -8.5625 L 3.667969 -3.109375 L 2.453125 -8.5625 C 2.417969 -8.695312 2.34375 -8.757812 2.210938 -8.757812 L 0.765625 -8.757812 C 0.625 -8.757812 0.546875 -8.683594 0.546875 -8.539062 L 0.546875 -0.21875 C 0.546875 -0.078125 0.625 0 0.765625 0 L 1.773438 0 C 1.917969 0 1.992188 -0.078125 1.992188 -0.21875 L 1.992188 -5.144531 L 2.070312 -5.144531 L 3.152344 -0.195312 C 3.1875 -0.0664062 3.261719 0 3.394531 0 L 3.929688 0 C 4.0625 0 4.140625 -0.0664062 4.171875 -0.195312 L 5.253906 -5.144531 L 5.332031 -5.144531 L 5.332031 -0.21875 C 5.332031 -0.078125 5.410156 0 5.550781 0 L 6.570312 0 C 6.710938 0 6.789062 -0.078125 6.789062 -0.21875 L 6.789062 -8.539062 C 6.789062 -8.683594 6.710938 -8.757812 6.570312 -8.757812 Z M 5.125 -8.757812 "/></g></g></g><g fill="#22766f" fill-opacity="1"><g transform="translate(66.912945, 27.370789)"><g><path d="M 4.917969 -8.585938 C 4.917969 -8.695312 4.871094 -8.757812 4.742188 -8.757812 L 0.710938 -8.757812 C 0.613281 -8.757812 0.546875 -8.695312 0.546875 -8.585938 L 0.546875 -0.175781 C 0.546875 -0.0664062 0.613281 0 0.710938 0 L 4.742188 0 C 4.871094 0 4.917969 -0.0664062 4.917969 -0.175781 L 4.917969 -1.269531 C 4.917969 -1.390625 4.871094 -1.445312 4.742188 -1.445312 L 2.003906 -1.445312 L 2.003906 -3.65625 L 4.09375 -3.65625 C 4.203125 -3.65625 4.269531 -3.722656 4.269531 -3.84375 L 4.269531 -4.925781 C 4.269531 -5.046875 4.203125 -5.113281 4.09375 -5.113281 L 2.003906 -5.113281 L 2.003906 -7.304688 L 4.742188 -7.304688 C 4.871094 -7.304688 4.917969 -7.378906 4.917969 -7.488281 Z M 4.917969 -8.585938 "/></g></g></g><g fill="#22766f" fill-opacity="1"><g transform="translate(72.376044, 27.370789)"><g><path d="M 0.546875 -1.578125 C 0.546875 -0.546875 1.09375 0 2.125 0 L 3.351562 0 C 4.378906 0 4.925781 -0.546875 4.925781 -1.578125 L 4.925781 -7.183594 C 4.925781 -8.210938 4.378906 -8.757812 3.351562 -8.757812 L 2.125 -8.757812 C 1.09375 -8.757812 0.546875 -8.210938 0.546875 -7.183594 Z M 2.441406 -1.414062 C 2.15625 -1.414062 2.003906 -1.554688 2.003906 -1.851562 L 2.003906 -6.910156 C 2.003906 -7.195312 2.15625 -7.347656 2.441406 -7.347656 L 3.078125 -7.347656 C 3.363281 -7.347656 3.515625 -7.195312 3.515625 -6.910156 L 3.515625 -1.851562 C 3.515625 -1.554688 3.363281 -1.414062 3.078125 -1.414062 Z M 2.441406 -1.414062 "/></g></g></g><g fill="#22766f" fill-opacity="1"><g transform="translate(77.85009, 27.370789)"><g/></g></g><g fill="#22766f" fill-opacity="1"><g transform="translate(80.587114, 27.370789)"><g><path d="M 4.9375 -7.183594 C 4.9375 -8.210938 4.378906 -8.757812 3.363281 -8.757812 L 2.136719 -8.757812 C 1.105469 -8.757812 0.546875 -8.210938 0.546875 -7.183594 L 0.546875 -1.578125 C 0.546875 -0.546875 1.105469 0 2.136719 0 L 3.363281 0 C 4.378906 0 4.9375 -0.546875 4.9375 -1.578125 L 4.9375 -2.757812 C 4.9375 -2.867188 4.871094 -2.933594 4.761719 -2.933594 L 3.667969 -2.933594 C 3.546875 -2.933594 3.492188 -2.867188 3.492188 -2.757812 L 3.492188 -1.882812 C 3.492188 -1.585938 3.339844 -1.445312 3.054688 -1.445312 L 2.484375 -1.445312 C 2.199219 -1.445312 2.046875 -1.585938 2.046875 -1.882812 L 2.046875 -6.875 C 2.046875 -7.160156 2.191406 -7.3125 2.484375 -7.3125 L 3.054688 -7.3125 C 3.339844 -7.3125 3.492188 -7.160156 3.492188 -6.875 L 3.492188 -6 C 3.492188 -5.890625 3.546875 -5.824219 3.667969 -5.824219 L 4.761719 -5.824219 C 4.871094 -5.824219 4.9375 -5.890625 4.9375 -6 Z M 4.9375 -7.183594 "/></g></g></g><g fill="#22766f" fill-opacity="1"><g transform="translate(86.072107, 27.370789)"><g><path d="M 5.824219 0 C 5.957031 0 6 -0.0664062 5.976562 -0.1875 L 4.160156 -8.605469 C 4.140625 -8.714844 4.074219 -8.757812 3.976562 -8.757812 L 2.453125 -8.757812 C 2.355469 -8.757812 2.289062 -8.714844 2.265625 -8.605469 L 0.449219 -0.1875 C 0.417969 -0.0664062 0.472656 0 0.589844 0 L 1.761719 0 C 1.863281 0 1.917969 -0.0546875 1.9375 -0.152344 L 2.234375 -1.75 L 4.183594 -1.75 L 4.488281 -0.152344 C 4.511719 -0.0546875 4.566406 0 4.664062 0 Z M 3.910156 -3.023438 L 2.507812 -3.023438 L 3.207031 -6.84375 Z M 3.910156 -3.023438 "/></g></g></g><g fill="#22766f" fill-opacity="1"><g transform="translate(92.487692, 27.370789)"><g><path d="M 5.046875 -7.183594 C 5.046875 -8.210938 4.5 -8.757812 3.472656 -8.757812 L 0.722656 -8.757812 C 0.613281 -8.757812 0.546875 -8.695312 0.546875 -8.585938 L 0.546875 -0.175781 C 0.546875 -0.0664062 0.613281 0 0.722656 0 L 1.863281 0 C 1.972656 0 2.035156 -0.0664062 2.035156 -0.175781 L 2.035156 -2.933594 L 2.792969 -2.933594 L 3.527344 -0.152344 C 3.546875 -0.0546875 3.601562 0 3.710938 0 L 4.851562 0 C 4.972656 0 5.035156 -0.0664062 5.003906 -0.195312 L 4.25 -3.066406 C 4.773438 -3.296875 5.046875 -3.777344 5.046875 -4.511719 Z M 2.035156 -4.378906 L 2.035156 -7.3125 L 3.121094 -7.3125 C 3.40625 -7.3125 3.558594 -7.160156 3.558594 -6.875 L 3.558594 -4.816406 C 3.558594 -4.53125 3.40625 -4.378906 3.121094 -4.378906 Z M 2.035156 -4.378906 "/></g></g></g><g fill="#22766f" fill-opacity="1"><g transform="translate(98.082169, 27.370789)"><g><path d="M 4.917969 -8.585938 C 4.917969 -8.695312 4.871094 -8.757812 4.742188 -8.757812 L 0.710938 -8.757812 C 0.613281 -8.757812 0.546875 -8.695312 0.546875 -8.585938 L 0.546875 -0.175781 C 0.546875 -0.0664062 0.613281 0 0.710938 0 L 4.742188 0 C 4.871094 0 4.917969 -0.0664062 4.917969 -0.175781 L 4.917969 -1.269531 C 4.917969 -1.390625 4.871094 -1.445312 4.742188 -1.445312 L 2.003906 -1.445312 L 2.003906 -3.65625 L 4.09375 -3.65625 C 4.203125 -3.65625 4.269531 -3.722656 4.269531 -3.84375 L 4.269531 -4.925781 C 4.269531 -5.046875 4.203125 -5.113281 4.09375 -5.113281 L 2.003906 -5.113281 L 2.003906 -7.304688 L 4.742188 -7.304688 C 4.871094 -7.304688 4.917969 -7.378906 4.917969 -7.488281 Z M 4.917969 -8.585938 "/></g></g></g></svg>